<?xml version="1.0" ?><svg height="24px" version="1.1" viewBox="0 0 24 24" width="24px" xmlns="http://www.w3.org/2000/svg" xmlns:sketch="http://www.bohemiancoding.com/sketch/ns" xmlns:xlink="http://www.w3.org/1999/xlink"><title/><desc/><defs/><g fill="none" fill-rule="evenodd" id="miu" stroke="none" stroke-width="1"><g id="Artboard-1" transform="translate(-647.000000, -155.000000)"><g id="slice" transform="translate(215.000000, 119.000000)"/><path d="M648,166.5 C648,160.148725 653.148725,155 659.5,155 C665.851275,155 671,160.148725 671,166.5 C671,172.851275 665.851275,178 659.5,178 C653.148725,178 648,172.851275 648,166.5 Z M670,166.5 C670,160.70101 665.29899,156 659.5,156 C653.70101,156 649,160.70101 649,166.5 C649,172.29899 653.70101,177 659.5,177 C665.29899,177 670,172.29899 670,166.5 Z M659,161 L659.5,162 L660,161 L660,157 L659,157 L659,161 Z M659,170 L659,176 L660,176 L660,170 L659.5,169 L659,170 Z M660,167.5 C660,167.5 661.543773,168.994745 661.73938,169.972778 C662.043773,171.494745 664.409546,172.942871 664.409546,172.942871 L663.942139,171.759277 L665.25293,171.759277 C665.25293,171.759277 663.107178,170.793457 662.803589,169.520508 C662.5,168.247559 661,167 661,167 L660,167.5 Z M659.192043,167.5 C659.192043,167.5 657.648269,168.994745 657.452663,169.972778 C657.148269,171.494745 654.782497,172.942871 654.782497,172.942871 L655.249904,171.759277 L653.939113,171.759277 C653.939113,171.759277 656.084865,170.793457 656.388454,169.520508 C656.692043,168.247559 658.192043,167 658.192043,167 L659.192043,167.5 Z M663,167 L669,167 L669,166 L664.5,166 L663,167 Z M650,167 L656,167 L654.5,166 L650,166 L650,167 Z M659.5,167 C659.776142,167 660,166.776142 660,166.5 C660,166.223858 659.776142,166 659.5,166 C659.223858,166 659,166.223858 659,166.5 C659,166.776142 659.223858,167 659.5,167 Z M664.730175,161.265136 C661.828897,158.363857 659.786124,164.09926 659.786124,164.09926 L660.139678,165.867027 C660.139678,165.867027 662.25378,160.202954 664.028765,161.97794 C665.80375,163.752925 660.139678,165.867027 660.139678,165.867027 L661.907445,166.22058 C661.907445,166.22058 667.631453,164.166415 664.730175,161.265136 Z M654.265136,161.269825 C651.363857,164.171103 657.09926,166.213876 657.09926,166.213876 L658.867027,165.860322 C658.867027,165.860322 653.202954,163.74622 654.97794,161.971235 C656.752925,160.19625 658.867027,165.860322 658.867027,165.860322 L659.22058,164.092555 C659.22058,164.092555 657.166415,158.368547 654.265136,161.269825 Z" fill="#A3B849" id="circle-gift-present-outline-stroke"/></g></g></svg>